<?xml version="1.0" encoding="utf-8"?>
<!-- Generator: Adobe Illustrator 25.2.3, SVG Export Plug-In . SVG Version: 6.00 Build 0)  -->
<svg version="1.1" id="Layer_1" xmlns="http://www.w3.org/2000/svg" xmlns:xlink="http://www.w3.org/1999/xlink" x="0px" y="0px"
	 viewBox="0 0 2478.7 409.2" style="enable-background:new 0 0 2478.7 409.2;" xml:space="preserve">
<style type="text/css">
	.st0{fill:#FFFFFF;}
</style>
<g>
	<path class="st0" d="M0,296.9c30.4,10.9,58.6,33.1,109.9,63.5c102,60.4,142.7,43.3,227.1,17.3c84.4-26,99.3-90.6,155.7-112.7
		c56.4-22.1,91.7,7.1,128.1,64.9c36.4,57.8,144.8,39.8,220.6-69s92.4-129.9,175.3-150.5c82.9-20.7,213.1,71.7,328.3,142.8
		c115.2,71.1,177.3,107.1,347.7-15.8s244.1-90.8,392.9-63c148.8,27.8,300-50.8,362.9-131.4c12.3-15.8,22-30.1,29.7-42.9H0V296.9z"/>
	<rect x="2478.2" class="st0" width="0.5" height="409.2"/>
</g>
</svg>
